<?xml version="1.0" encoding="UTF-8"?>
<svg width="15px" height="16px" viewBox="0 0 15 16" version="1.1" xmlns="http://www.w3.org/2000/svg" xmlns:xlink="http://www.w3.org/1999/xlink">
    <!-- Generator: Sketch 54.1 (76490) - https://sketchapp.com -->
    <title>logo-instagram</title>
    <desc>Created with Sketch.</desc>
    <g id="Symbols" stroke="none" stroke-width="1" fill="none" fill-rule="evenodd">
        <g id="Footer" transform="translate(-1284.000000, -129.000000)" fill="#FFFFFF" fill-rule="nonzero">
            <g id="Group-2" transform="translate(1182.000000, 128.750000)">
                <g id="logo-instagram" transform="translate(102.000000, 1.230769)">
                    <path d="M7.38461538,1.33061538 C9.35630769,1.33061538 9.58984615,1.338 10.3684615,1.37353846 C11.2089231,1.41184615 11.9889231,1.58030769 12.5889231,2.18030769 C13.1889231,2.78030769 13.3573846,3.56030769 13.3956923,4.40076923 C13.4312308,5.17938462 13.4386154,5.41292308 13.4386154,7.38461538 C13.4386154,9.35630769 13.4312308,9.58984615 13.3956923,10.3684615 C13.3573846,11.2089231 13.1889231,11.9889231 12.5889231,12.5889231 C11.9889231,13.1889231 11.2089231,13.3573846 10.3684615,13.3956923 C9.58984615,13.4312308 9.35630769,13.4386154 7.38461538,13.4386154 C5.41292308,13.4386154 5.17938462,13.4312308 4.40076923,13.3956923 C3.56030769,13.3573846 2.78030769,13.1889231 2.18030769,12.5889231 C1.58030769,11.9889231 1.41184615,11.2089231 1.37353846,10.3684615 C1.338,9.58984615 1.33061538,9.35630769 1.33061538,7.38461538 C1.33061538,5.41292308 1.338,5.17938462 1.37353846,4.40076923 C1.41184615,3.56030769 1.58030769,2.78030769 2.18030769,2.18030769 C2.78030769,1.58030769 3.56030769,1.41184615 4.40076923,1.37353846 C5.17938462,1.338 5.41292308,1.33061538 7.38461538,1.33061538 L7.38461538,1.33061538 Z M7.38461538,0 C5.37923077,0 5.12769231,0.00830769231 4.33984615,0.0443076923 C3.13984615,0.0992307692 2.08569231,0.393230769 1.23923077,1.23923077 C0.393230769,2.08523077 0.0992307692,3.13938462 0.0443076923,4.33984615 C0.00830769231,5.12769231 0,5.37923077 0,7.38461538 C0,9.39 0.00830769231,9.64153846 0.0443076923,10.4293846 C0.0992307692,11.6293846 0.393230769,12.6835385 1.23923077,13.53 C2.08523077,14.376 3.13938462,14.67 4.33984615,14.7249231 C5.12769231,14.7609231 5.37923077,14.7692308 7.38461538,14.7692308 C9.39,14.7692308 9.64153846,14.7609231 10.4293846,14.7249231 C11.6293846,14.67 12.6835385,14.376 13.53,13.53 C14.376,12.684 14.67,11.6298462 14.7249231,10.4293846 C14.7609231,9.64153846 14.7692308,9.39 14.7692308,7.38461538 C14.7692308,5.37923077 14.7609231,5.12769231 14.7249231,4.33984615 C14.67,3.13984615 14.376,2.08569231 13.53,1.23923077 C12.684,0.393230769 11.6298462,0.0992307692 10.4293846,0.0443076923 C9.64153846,0.00830769231 9.39,0 7.38461538,0 L7.38461538,0 Z" id="Shape"></path>
                    <path d="M7.38461538,3.59261538 C5.29015385,3.59261538 3.59261538,5.29061538 3.59261538,7.38461538 C3.59261538,9.47907692 5.29061538,11.1766154 7.38461538,11.1766154 C9.47861538,11.1766154 11.1766154,9.47861538 11.1766154,7.38461538 C11.1766154,5.29015385 9.47907692,3.59261538 7.38461538,3.59261538 Z M7.38461538,9.846 C6.02492308,9.846 4.92323077,8.74384615 4.92323077,7.38461538 C4.92323077,6.02492308 6.02538462,4.92323077 7.38461538,4.92323077 C8.74430769,4.92323077 9.846,6.02538462 9.846,7.38461538 C9.846,8.74430769 8.74430769,9.846 7.38461538,9.846 Z" id="Shape"></path>
                    <circle id="Oval" cx="11.3266154" cy="3.44261538" r="1"></circle>
                </g>
            </g>
        </g>
    </g>
</svg>