<?xml version="1.0" encoding="UTF-8"?>
<svg width="20px" height="20px" viewBox="0 0 20 20" version="1.1" xmlns="http://www.w3.org/2000/svg" xmlns:xlink="http://www.w3.org/1999/xlink">
    <!-- Generator: Sketch 56.3 (81716) - https://sketch.com -->
    <title>logo-instagram copy</title>
    <desc>Created with Sketch.</desc>
    <g id="UI" stroke="none" stroke-width="1" fill="none" fill-rule="evenodd">
        <g id="/me" transform="translate(-43.000000, -823.000000)" fill="#929292" fill-rule="nonzero">
            <g id="Group-5" transform="translate(22.500000, 592.500000)">
                <g id="logo-instagram-copy" transform="translate(21.000000, 231.000000)">
                    <path d="M9.35384615,1.68544615 C11.8513231,1.68544615 12.1471385,1.6948 13.1333846,1.73981538 C14.1979692,1.78833846 15.1859692,2.00172308 15.9459692,2.76172308 C16.7059692,3.52172308 16.9193538,4.50972308 16.9678769,5.57430769 C17.0128923,6.56055385 17.0222462,6.85636923 17.0222462,9.35384615 C17.0222462,11.8513231 17.0128923,12.1471385 16.9678769,13.1333846 C16.9193538,14.1979692 16.7059692,15.1859692 15.9459692,15.9459692 C15.1859692,16.7059692 14.1979692,16.9193538 13.1333846,16.9678769 C12.1471385,17.0128923 11.8513231,17.0222462 9.35384615,17.0222462 C6.85636923,17.0222462 6.56055385,17.0128923 5.57430769,16.9678769 C4.50972308,16.9193538 3.52172308,16.7059692 2.76172308,15.9459692 C2.00172308,15.1859692 1.78833846,14.1979692 1.73981538,13.1333846 C1.6948,12.1471385 1.68544615,11.8513231 1.68544615,9.35384615 C1.68544615,6.85636923 1.6948,6.56055385 1.73981538,5.57430769 C1.78833846,4.50972308 2.00172308,3.52172308 2.76172308,2.76172308 C3.52172308,2.00172308 4.50972308,1.78833846 5.57430769,1.73981538 C6.56055385,1.6948 6.85636923,1.68544615 9.35384615,1.68544615 L9.35384615,1.68544615 Z M9.35384615,0 C6.81369231,0 6.49507692,0.0105230769 5.49713846,0.0561230769 C3.97713846,0.125692308 2.64187692,0.498092308 1.56969231,1.56969231 C0.498092308,2.64129231 0.125692308,3.97655385 0.0561230769,5.49713846 C0.0105230769,6.49507692 0,6.81369231 0,9.35384615 C0,11.894 0.0105230769,12.2126154 0.0561230769,13.2105538 C0.125692308,14.7305538 0.498092308,16.0658154 1.56969231,17.138 C2.64129231,18.2096 3.97655385,18.582 5.49713846,18.6515692 C6.49507692,18.6971692 6.81369231,18.7076923 9.35384615,18.7076923 C11.894,18.7076923 12.2126154,18.6971692 13.2105538,18.6515692 C14.7305538,18.582 16.0658154,18.2096 17.138,17.138 C18.2096,16.0664 18.582,14.7311385 18.6515692,13.2105538 C18.6971692,12.2126154 18.7076923,11.894 18.7076923,9.35384615 C18.7076923,6.81369231 18.6971692,6.49507692 18.6515692,5.49713846 C18.582,3.97713846 18.2096,2.64187692 17.138,1.56969231 C16.0664,0.498092308 14.7311385,0.125692308 13.2105538,0.0561230769 C12.2126154,0.0105230769 11.894,0 9.35384615,0 L9.35384615,0 Z" id="Shape"></path>
                    <path d="M9.35384615,4.55064615 C6.70086154,4.55064615 4.55064615,6.70144615 4.55064615,9.35384615 C4.55064615,12.0068308 6.70144615,14.1570462 9.35384615,14.1570462 C12.0062462,14.1570462 14.1570462,12.0062462 14.1570462,9.35384615 C14.1570462,6.70086154 12.0068308,4.55064615 9.35384615,4.55064615 Z M9.35384615,12.4716 C7.63156923,12.4716 6.23609231,11.0755385 6.23609231,9.35384615 C6.23609231,7.63156923 7.63215385,6.23609231 9.35384615,6.23609231 C11.0761231,6.23609231 12.4716,7.63215385 12.4716,9.35384615 C12.4716,11.0761231 11.0761231,12.4716 9.35384615,12.4716 Z" id="Shape"></path>
                    <circle id="Oval" cx="14.3470462" cy="4.36064615" r="1.12246154"></circle>
                </g>
            </g>
        </g>
    </g>
</svg>