<?xml version="1.0" encoding="UTF-8"?>
<svg width="12px" height="12px" viewBox="0 0 12 12" version="1.1" xmlns="http://www.w3.org/2000/svg" xmlns:xlink="http://www.w3.org/1999/xlink">
    <!-- Generator: Sketch 55.2 (78181) - https://sketchapp.com -->
    <title>Icon/LinkedIn</title>
    <desc>Created with Sketch.</desc>
    <g id="Symbols" stroke="none" stroke-width="1" fill="none" fill-rule="evenodd">
        <g id="Elements/Buttons/Big/Icon" transform="translate(-18.000000, -22.000000)" fill="#002D83">
            <g id="Icon/LinkedIn" transform="translate(18.000000, 22.000000)">
                <g id="logo-linkedin">
                    <path d="M2.7,11.6 L0.4,11.6 L0.4,4 L2.8,4 L2.8,11.6 L2.7,11.6 Z M1.6,3 C0.8,3 0.2,2.3 0.2,1.6 C0.2,0.8 0.8,0.2 1.6,0.2 C2.4,0.2 3,0.8 3,1.6 C2.9,2.3 2.3,3 1.6,3 Z M11.6,11.6 L9.2,11.6 L9.2,7.9 C9.2,7 9.2,5.9 8,5.9 C6.8,5.9 6.6,6.9 6.6,7.9 L6.6,11.7 L4.2,11.7 L4.2,4 L6.5,4 L6.5,5 C6.8,4.4 7.6,3.8 8.7,3.8 C11.1,3.8 11.5,5.4 11.5,7.4 L11.5,11.6 L11.6,11.6 Z" id="Shape" fill-rule="nonzero"></path>
                </g>
            </g>
        </g>
    </g>
</svg>