<?xml version="1.0" encoding="UTF-8"?>
<svg width="15px" height="16px" viewBox="0 0 15 16" version="1.1" xmlns="http://www.w3.org/2000/svg" xmlns:xlink="http://www.w3.org/1999/xlink">
    <!-- Generator: Sketch 54.1 (76490) - https://sketchapp.com -->
    <title>logo-linkedin</title>
    <desc>Created with Sketch.</desc>
    <g id="Symbols" stroke="none" stroke-width="1" fill="none" fill-rule="evenodd">
        <g id="Footer" transform="translate(-1182.000000, -128.000000)" fill="#FFFFFF" fill-rule="nonzero">
            <g id="Group-2" transform="translate(1182.000000, 128.750000)">
                <g id="logo-linkedin">
                    <path d="M3.38461538,14.3384615 L0.430769231,14.3384615 L0.430769231,4.92307692 L3.38461538,4.92307692 L3.38461538,14.3384615 Z M1.90769231,3.63076923 C0.984615385,3.63076923 0.184615385,2.89230769 0.184615385,1.90769231 C0.184615385,0.984615385 0.923076923,0.184615385 1.90769231,0.184615385 C2.83076923,0.184615385 3.63076923,0.923076923 3.63076923,1.90769231 C3.63076923,2.89230769 2.83076923,3.63076923 1.90769231,3.63076923 Z M14.3384615,14.3384615 L11.4461538,14.3384615 L11.4461538,9.78461538 C11.4461538,8.67692308 11.4461538,7.32307692 9.90769231,7.32307692 C8.36923077,7.32307692 8.18461538,8.49230769 8.18461538,9.72307692 L8.18461538,14.4 L5.29230769,14.4 L5.29230769,4.92307692 L8,4.92307692 L8,6.21538462 L8.06153846,6.21538462 C8.43076923,5.47692308 9.41538462,4.67692308 10.8307692,4.67692308 C13.7846154,4.67692308 14.3384615,6.64615385 14.3384615,9.16923077 L14.3384615,14.3384615 Z" id="Shape"></path>
                </g>
            </g>
        </g>
    </g>
</svg>