<?xml version="1.0" encoding="UTF-8"?>
<svg width="20px" height="22px" viewBox="0 0 20 22" version="1.1" xmlns="http://www.w3.org/2000/svg" xmlns:xlink="http://www.w3.org/1999/xlink">
    <!-- Generator: Sketch 56.3 (81716) - https://sketch.com -->
    <title>paper</title>
    <desc>Created with Sketch.</desc>
    <g id="UI" stroke="none" stroke-width="1" fill="none" fill-rule="evenodd">
        <g id="/me" transform="translate(-43.000000, -910.000000)" fill="#929292" fill-rule="nonzero">
            <g id="Group-5" transform="translate(22.500000, 592.500000)">
                <g id="paper" transform="translate(20.875000, 318.000000)">
                    <path d="M4.375,16.625 L4.375,17.9375 C4.375,18.981375 3.33025,19.203625 3.0275,19.2465 C2.319625,19.22725 1.75,18.648875 1.75,17.9375 L1.75,1.75 L14.875,1.75 L14.875,14.875 L16.625,14.875 L16.625,0.875 C16.625,0.392 16.233,0 15.75,0 L0.875,0 C0.392,0 0,0.392 0,0.875 L0,17.9375 C0,19.62625 1.37375,21 3.0625,21 L16.1875,21 C17.87625,21 19.25,19.62625 19.25,17.9375 L19.25,16.625 L4.375,16.625 Z" id="Path"></path>
                    <rect id="Rectangle" x="4.375" y="4.375" width="7.875" height="1.75"></rect>
                    <rect id="Rectangle" x="4.375" y="7.875" width="7.875" height="1.75"></rect>
                    <rect id="Rectangle" x="4.375" y="11.375" width="7.875" height="1.75"></rect>
                </g>
            </g>
        </g>
    </g>
</svg>