<?xml version="1.0" encoding="UTF-8"?>
<svg width="38px" height="34px" viewBox="0 0 38 34" version="1.1" xmlns="http://www.w3.org/2000/svg" xmlns:xlink="http://www.w3.org/1999/xlink">
    <!-- Generator: Sketch 57.1 (83088) - https://sketch.com -->
    <title>sign-language</title>
    <desc>Created with Sketch.</desc>
    <g id="UI" stroke="none" stroke-width="1" fill="none" fill-rule="evenodd">
        <g id="Discovery-workshop" transform="translate(-701.000000, -154.000000)" fill="#FDEDE4" fill-rule="nonzero">
            <g id="sign-language" transform="translate(701.813953, 154.000000)">
                <path d="M9.55936575,24.0149597 L9.55936575,15.0010062 L6.49699366,6.58798293 C6.24168171,5.83550837 5.48384542,5.3741443 4.69815645,5.49286665 C4.24047644,5.57667277 3.84292946,5.85778339 3.61135963,6.26135478 C3.37978979,6.66492616 3.33769986,7.14999855 3.49629598,7.58742479 L7.48852854,18.5575643 C7.54437748,18.711833 7.4991412,18.8845647 7.37484538,18.9916557 C7.25054956,19.0987468 7.07302723,19.1179399 6.92871459,19.0398899 L3.0487611,16.9405876 C2.16148388,16.4397053 1.03884582,16.6952899 0.455840902,17.530903 C-0.127164019,18.3665161 0.0204820289,19.5083743 0.796854123,20.1682155 L10.5935983,28.5243085 C9.923786,27.1147206 9.57077368,25.5755546 9.55936575,24.0149597 L9.55936575,24.0149597 Z" id="Path"></path>
                <path d="M13.5919239,7.58742479 C14.845877,7.8435728 15.8446799,8.79114718 16.1664355,10.0298899 L16.1933192,10.1295178 L16.4676913,12.3379364 L17.8118774,9.94291316 L14.6016448,1.11398293 C14.3464966,0.360627447 13.5875292,-0.101019344 12.8012262,0.0188666525 C12.342757,0.102488781 11.9445152,0.38407813 11.7128386,0.788445114 C11.4811621,1.1928121 11.4396423,1.67878045 11.5993658,2.11658758 L13.5919239,7.58742479 Z" id="Path"></path>
                <path d="M18.8358309,8.12272712 L20.870296,4.50370386 C20.687342,4.10038593 20.3436486,3.79226723 19.9228151,3.65429395 C19.5019815,3.51632066 19.0425757,3.56113753 18.6563425,3.7778434 C17.9780348,4.19209703 17.6941923,5.0329638 17.9826681,5.77356433 L18.8358309,8.12272712 Z" id="Path"></path>
                <path d="M9.60364482,10.500355 C9.77344323,9.18609842 10.6804098,8.08495743 11.9377844,7.66649456 L9.87564482,1.99323875 C9.62044552,1.23954916 8.86101187,0.777821503 8.07443552,0.898122466 C7.61567694,0.981345632 7.21702326,1.2627718 6.9850112,1.6671923 C6.75299914,2.07161279 6.71127664,2.55780686 6.87099366,2.9958434 L9.60364482,10.500355 Z" id="Path"></path>
                <path d="M35.3289937,13.9272387 C34.5545357,13.6438909 33.6883552,13.9563822 33.2731797,14.6689132 L29.7893658,20.7707271 C29.5727674,21.1499926 29.0897243,21.2818604 28.7104588,21.065262 C28.3311933,20.8486636 28.1993255,20.3656205 28.4159239,19.986355 L34.6474123,9.07472712 C35.0567756,8.39357003 34.9188314,7.5169245 34.3200634,6.99440154 C33.9600494,6.69879161 33.4880158,6.57694694 33.0299033,6.66137618 C32.5717908,6.74580543 32.174206,7.0279191 31.9432262,7.43244805 L25.6682495,18.4199829 C25.5281349,18.6653247 25.2677754,18.8172796 24.9852459,18.8186077 C24.7027164,18.8199358 24.4409399,18.6704353 24.298525,18.4264217 C24.1561101,18.182408 24.154693,17.8809526 24.2948076,17.6356108 L30.9192727,6.03607595 C31.331789,5.35367263 31.193649,4.47344674 30.5919239,3.95021549 C30.2317729,3.65437898 29.7594604,3.53248073 29.3011246,3.61707547 C28.8427887,3.70167021 28.4451106,3.98414206 28.214296,4.3890527 L21.5487146,16.0621225 C21.3321162,16.441388 20.8490731,16.5732557 20.4698076,16.3566574 C20.0905421,16.140059 19.9586744,15.6570159 20.1752727,15.2777504 L25.2309937,6.42193642 C25.6381136,5.7416734 25.5003086,4.8675766 24.9036448,4.34556433 C24.5434938,4.04972782 24.0711813,3.92782957 23.6128455,4.01242431 C23.1545097,4.09701905 22.7568315,4.37949089 22.5260169,4.78440154 L16.0810402,16.2495178 C15.9972974,16.398351 15.8274553,16.4765904 15.659914,16.4435136 C15.4923726,16.4104367 15.3650074,16.2735212 15.3441099,16.1040294 L14.632482,10.4228667 C14.4166937,9.58335442 13.6261516,9.02245397 12.762482,9.09607595 C11.8200322,9.21421371 11.1196024,10.0259747 11.1407611,10.9755643 L11.1407611,24.006262 C11.1532166,27.2531478 12.8980933,30.2463891 15.7173192,31.8570992 C20.3092389,34.6022316 26.2569587,33.1076927 29.0057844,28.5179829 L36.0635518,16.1585876 C36.2857447,15.7697406 36.3326434,15.304916 36.1926039,14.8795214 C36.0525643,14.4541267 35.7387203,14.1080583 35.3289937,13.9272387 Z" id="Path"></path>
            </g>
        </g>
    </g>
</svg>