<?xml version="1.0" encoding="UTF-8"?>
<svg width="137px" height="23px" viewBox="0 0 137 23" version="1.1" xmlns="http://www.w3.org/2000/svg" xmlns:xlink="http://www.w3.org/1999/xlink">
    <!-- Generator: Sketch 55.2 (78181) - https://sketchapp.com -->
    <title>Group</title>
    <desc>Created with Sketch.</desc>
    <g id="UI" stroke="none" stroke-width="1" fill="none" fill-rule="evenodd">
        <g id="About-me" transform="translate(-813.000000, -2735.000000)">
            <g id="Group-12" transform="translate(244.000000, 2673.000000)">
                <g id="Group-9" transform="translate(488.000000, 0.000000)">
                    <g id="Group-2" transform="translate(81.000000, 59.000000)">
                        <g id="Group">
                            <text id="Telegram" font-family="AvenirNext-DemiBold, Avenir Next" font-size="22" font-weight="500" line-spacing="27" fill="#141414">
                                <tspan x="41" y="22">Telegram</tspan>
                            </text>
                            <g id="telegram" transform="translate(0.000000, 3.500000)" fill="#111111" fill-rule="nonzero">
                                <path d="M23.953,0.527 C23.9133985,0.34660884 23.780234,0.201234406 23.604,0.146 C23.2886684,0.0835504806 22.9623663,0.10668513 22.659,0.213 C22.659,0.213 1.63,7.772 0.429,8.609 C0.171,8.789 0.084,8.894 0.041,9.017 C-0.167,9.617 0.48,9.875 0.48,9.875 L5.9,11.641 C5.99164503,11.6574403 6.08587993,11.6519575 6.175,11.625 C7.407,10.846 18.575,3.791 19.224,3.554 C19.324,3.524 19.401,3.554 19.381,3.629 C19.123,4.534 9.472,13.107 9.419,13.159 C9.36654452,13.2019781 9.3394404,13.268609 9.347,13.336 L8.841,18.628 C8.841,18.628 8.629,20.275 10.276,18.628 C11.444,17.459 12.565,16.491 13.125,16.02 C14.989,17.307 16.994,18.73 17.859,19.475 C18.1529824,19.759571 18.5500961,19.9122793 18.959,19.898 C19.4692604,19.8358063 19.8877625,19.4642912 20.01,18.965 C20.01,18.965 23.84,3.542 23.968,1.476 C23.981,1.276 23.998,1.144 24,1.005 C24.006225,0.844268277 23.9904114,0.683441113 23.953,0.527 Z" id="Path"></path>
                            </g>
                        </g>
                    </g>
                </g>
            </g>
        </g>
    </g>
</svg>