<?xml version="1.0" encoding="UTF-8"?>
<svg width="15px" height="13px" viewBox="0 0 15 13" version="1.1" xmlns="http://www.w3.org/2000/svg" xmlns:xlink="http://www.w3.org/1999/xlink">
    <!-- Generator: Sketch 54.1 (76490) - https://sketchapp.com -->
    <title>telegram</title>
    <desc>Created with Sketch.</desc>
    <g id="Symbols" stroke="none" stroke-width="1" fill="none" fill-rule="evenodd">
        <g id="Footer" transform="translate(-1233.000000, -130.000000)" fill="#FFFFFF" fill-rule="nonzero">
            <g id="Group-2" transform="translate(1182.000000, 128.750000)">
                <g id="telegram" transform="translate(51.000000, 1.230769)">
                    <path d="M14.7404381,0.255565557 C14.716068,0.144555612 14.6341206,0.0550944221 14.5256689,0.0211040184 C14.3316187,-0.017326455 14.1308174,-0.00308974745 13.9441304,0.0623347877 C13.9441304,0.0623347877 1.00320736,4.7140271 0.264130434,5.22910402 C0.105361203,5.33987325 0.0518227417,5.40448863 0.0253612033,5.48018094 C-0.102638797,5.84941171 0.295515049,6.00818094 0.295515049,6.00818094 L3.63089966,7.09495017 C3.68729661,7.10506726 3.74528731,7.10169326 3.80013043,7.08510402 C4.55828428,6.6057194 11.4308997,2.26418094 11.8302843,2.11833479 C11.8918227,2.09987325 11.9392074,2.11833479 11.9268997,2.16448863 C11.7681304,2.72141171 5.82905351,7.99710402 5.79643813,8.02910402 C5.76415783,8.05555206 5.74747837,8.09655572 5.75213043,8.1380271 L5.44074582,11.3946425 C5.44074582,11.3946425 5.31028428,12.4081809 6.32382274,11.3946425 C7.04259197,10.6752579 7.73243813,10.0795656 8.07705351,9.7897194 C9.22413043,10.5817194 10.4579766,11.4574117 10.9902843,11.9158732 C11.1711965,12.0909938 11.4155742,12.1849682 11.6672074,12.1761809 C11.9812137,12.1379079 12.2387535,11.9092832 12.3139766,11.6020271 C12.3139766,11.6020271 14.6708997,2.11095017 14.7496689,0.839565557 C14.7576689,0.716488634 14.7681304,0.635257865 14.7693612,0.549719403 C14.773192,0.450807574 14.7634605,0.351837011 14.7404381,0.255565557 Z" id="Path"></path>
                </g>
            </g>
        </g>
    </g>
</svg>