<?xml version="1.0" encoding="UTF-8"?>
<svg width="19px" height="16px" viewBox="0 0 19 16" version="1.1" xmlns="http://www.w3.org/2000/svg" xmlns:xlink="http://www.w3.org/1999/xlink">
    <!-- Generator: Sketch 56.3 (81716) - https://sketch.com -->
    <title>telegram copy</title>
    <desc>Created with Sketch.</desc>
    <g id="UI" stroke="none" stroke-width="1" fill="none" fill-rule="evenodd">
        <g id="/me" transform="translate(-43.000000, -737.000000)" fill="#929292" fill-rule="nonzero">
            <g id="Group-5" transform="translate(22.500000, 592.500000)">
                <g id="telegram-copy" transform="translate(20.815789, 144.500000)">
                    <path d="M18.6195008,0.632243106 C18.5887174,0.492020018 18.4852049,0.37901641 18.3482133,0.336081163 C18.1030973,0.287537407 17.8494535,0.305520617 17.6136384,0.388162135 C17.6136384,0.388162135 1.26720929,6.263984 0.333638443,6.91460748 C0.133087836,7.05452651 0.0654603053,7.13614594 0.0320352041,7.23175728 C-0.129649006,7.69815404 0.373282168,7.89870464 0.373282168,7.89870464 L4.58639958,9.27146578 C4.65763782,9.28424526 4.73088924,9.27998336 4.80016476,9.25902853 C5.75783277,8.65349007 14.4390312,3.16944149 14.943517,2.98521477 C15.0212498,2.96189493 15.081104,2.98521477 15.0655575,3.04351436 C14.8650069,3.74699614 7.36301496,10.4110285 7.32181658,10.4514496 C7.28104147,10.4848576 7.25997268,10.5366517 7.26584897,10.5890366 L6.87252103,14.7026561 C6.87252103,14.7026561 6.70772751,15.9829152 7.98798662,14.7026561 C8.89590565,13.7939597 9.76729026,13.0415063 10.2025939,12.6753848 C11.6515332,13.6758059 13.2100757,14.7819435 13.8824644,15.3610528 C14.1109851,15.5822578 14.4196727,15.7009622 14.7375251,15.6898625 C15.1341647,15.6415177 15.4594781,15.3527286 15.5544967,14.9646156 C15.5544967,14.9646156 18.5316627,2.97588683 18.6311607,1.36992732 C18.641266,1.21446173 18.6544805,1.11185444 18.6560352,1.00380586 C18.6608741,0.878864601 18.6485817,0.753849154 18.6195008,0.632243106 Z" id="Path"></path>
                </g>
            </g>
        </g>
    </g>
</svg>