<?xml version="1.0" encoding="UTF-8"?>
<svg width="23px" height="24px" viewBox="0 0 23 24" version="1.1" xmlns="http://www.w3.org/2000/svg" xmlns:xlink="http://www.w3.org/1999/xlink">
    <!-- Generator: Sketch 56.3 (81716) - https://sketch.com -->
    <title>Shape</title>
    <desc>Created with Sketch.</desc>
    <g id="UI" stroke="none" stroke-width="1" fill="none" fill-rule="evenodd">
        <g id="/me" transform="translate(-42.000000, -645.000000)" fill="#929292" fill-rule="nonzero">
            <g id="Group-5" transform="translate(22.500000, 592.500000)">
                <g id="ic_fingerprint_24px" transform="translate(20.100000, 52.500000)">
                    <path d="M17.972,2.964 C17.876,2.964 17.78,2.94 17.696,2.892 C15.392,1.704 13.4,1.2 11.012,1.2 C8.636,1.2 6.38,1.764 4.328,2.892 C4.04,3.048 3.68,2.94 3.512,2.652 C3.356,2.364 3.464,1.992 3.752,1.836 C5.984,0.624 8.432,0 11.012,0 C13.568,0 15.8,0.564 18.248,1.824 C18.548,1.98 18.656,2.34 18.5,2.628 C18.392,2.844 18.188,2.964 17.972,2.964 L17.972,2.964 Z M0.8,9.264 C0.68,9.264 0.56,9.228 0.452,9.156 C0.176,8.964 0.116,8.592 0.308,8.316 C1.496,6.636 3.008,5.316 4.808,4.392 C8.576,2.448 13.4,2.436 17.18,4.38 C18.98,5.304 20.492,6.612 21.68,8.28 C21.872,8.544 21.812,8.928 21.536,9.12 C21.26,9.312 20.888,9.252 20.696,8.976 C19.616,7.464 18.248,6.276 16.628,5.448 C13.184,3.684 8.78,3.684 5.348,5.46 C3.716,6.3 2.348,7.5 1.268,9.012 C1.172,9.18 0.992,9.264 0.8,9.264 L0.8,9.264 Z M8.3,23.748 C8.144,23.748 7.988,23.688 7.88,23.568 C6.836,22.524 6.272,21.852 5.468,20.4 C4.64,18.924 4.208,17.124 4.208,15.192 C4.208,11.628 7.256,8.724 11,8.724 C14.744,8.724 17.792,11.628 17.792,15.192 C17.792,15.528 17.528,15.792 17.192,15.792 C16.856,15.792 16.592,15.528 16.592,15.192 C16.592,12.288 14.084,9.924 11,9.924 C7.916,9.924 5.408,12.288 5.408,15.192 C5.408,16.92 5.792,18.516 6.524,19.812 C7.292,21.192 7.82,21.78 8.744,22.716 C8.972,22.956 8.972,23.328 8.744,23.568 C8.612,23.688 8.456,23.748 8.3,23.748 Z M16.904,21.528 C15.476,21.528 14.216,21.168 13.184,20.46 C11.396,19.248 10.328,17.28 10.328,15.192 C10.328,14.856 10.592,14.592 10.928,14.592 C11.264,14.592 11.528,14.856 11.528,15.192 C11.528,16.884 12.392,18.48 13.856,19.464 C14.708,20.04 15.704,20.316 16.904,20.316 C17.192,20.316 17.672,20.28 18.152,20.196 C18.476,20.136 18.788,20.352 18.848,20.688 C18.908,21.012 18.692,21.324 18.356,21.384 C17.672,21.516 17.072,21.528 16.904,21.528 L16.904,21.528 Z M14.492,24 C14.444,24 14.384,23.988 14.336,23.976 C12.428,23.448 11.18,22.74 9.872,21.456 C8.192,19.788 7.268,17.568 7.268,15.192 C7.268,13.248 8.924,11.664 10.964,11.664 C13.004,11.664 14.66,13.248 14.66,15.192 C14.66,16.476 15.776,17.52 17.156,17.52 C18.536,17.52 19.652,16.476 19.652,15.192 C19.652,10.668 15.752,6.996 10.952,6.996 C7.544,6.996 4.424,8.892 3.02,11.832 C2.552,12.804 2.312,13.944 2.312,15.192 C2.312,16.128 2.396,17.604 3.116,19.524 C3.236,19.836 3.08,20.184 2.768,20.292 C2.456,20.412 2.108,20.244 2,19.944 C1.412,18.372 1.124,16.812 1.124,15.192 C1.124,13.752 1.4,12.444 1.94,11.304 C3.536,7.956 7.076,5.784 10.952,5.784 C16.412,5.784 20.852,9.996 20.852,15.18 C20.852,17.124 19.196,18.708 17.156,18.708 C15.116,18.708 13.46,17.124 13.46,15.18 C13.46,13.896 12.344,12.852 10.964,12.852 C9.584,12.852 8.468,13.896 8.468,15.18 C8.468,17.232 9.26,19.152 10.712,20.592 C11.852,21.72 12.944,22.344 14.636,22.812 C14.96,22.896 15.14,23.232 15.056,23.544 C14.996,23.82 14.744,24 14.492,24 L14.492,24 Z" id="Shape"></path>
                </g>
            </g>
        </g>
    </g>
</svg>