<?xml version="1.0" encoding="UTF-8"?>
<svg width="26px" height="27px" viewBox="0 0 26 27" version="1.1" xmlns="http://www.w3.org/2000/svg" xmlns:xlink="http://www.w3.org/1999/xlink">
    <!-- Generator: Sketch 54.1 (76490) - https://sketchapp.com -->
    <title>Group 7</title>
    <desc>Created with Sketch.</desc>
    <g id="UI" stroke="none" stroke-width="1" fill="none" fill-rule="evenodd">
        <g id="About-me" transform="translate(-267.000000, -912.000000)">
            <g id="Group-19" transform="translate(246.500000, 894.214244)">
                <g id="Group-7" transform="translate(20.500000, 18.585756)">
                    <path d="M4.80024158,0.0807609594 L21.8324711,3.55621978 C23.694964,3.936265 25.0327429,5.57458684 25.0327429,7.47545884 L25.0327429,20.3585438 C25.0327429,22.5676828 23.2418819,24.3585438 21.0327429,24.3585438 C20.8748456,24.3585438 20.7170869,24.3491945 20.5602949,24.330545 L5.62288861,22.5538215 C3.82406431,22.3398612 2.39358082,20.9437163 2.13598483,19.1506206 L0.0411616321,4.56880019 C-0.272978028,2.3821106 1.24502363,0.354787921 3.43171322,0.0406482613 C3.8868046,-0.0247301312 4.34976079,-0.0111605024 4.80024158,0.0807609594 Z" id="Rectangle" fill="#FAF4EF"></path>
                    <polygon id="1" stroke="#213F7A" fill="#527BCA" fill-rule="nonzero" points="7.84202301 14.0366038 4.98467838 16.0055304 2.29541284 11.8275642 8.322249 7.98575634 13.6047349 7.98575634 13.6047349 24.9857563 7.84202301 24.9857563"></polygon>
                </g>
            </g>
        </g>
    </g>
</svg>